<?xml version="1.0" encoding="UTF-8" standalone="no"?>
<!-- Created with Inkscape (http://www.inkscape.org/) -->

<svg
   width="512"
   height="512"
   viewBox="0 0 135.46667 135.46667"
   version="1.1"
   id="svg1"
   inkscape:version="1.3 (1:1.3+202307231459+0e150ed6c4)"
   sodipodi:docname="phone.svg"
   xml:space="preserve"
   xmlns:inkscape="http://www.inkscape.org/namespaces/inkscape"
   xmlns:sodipodi="http://sodipodi.sourceforge.net/DTD/sodipodi-0.dtd"
   xmlns="http://www.w3.org/2000/svg"
   xmlns:svg="http://www.w3.org/2000/svg"><sodipodi:namedview
     id="namedview1"
     pagecolor="#ffffff"
     bordercolor="#000000"
     borderopacity="0.25"
     inkscape:showpageshadow="2"
     inkscape:pageopacity="0.0"
     inkscape:pagecheckerboard="0"
     inkscape:deskcolor="#d1d1d1"
     inkscape:document-units="mm"
     inkscape:zoom="0.67348485"
     inkscape:cx="591.69854"
     inkscape:cy="464.7469"
     inkscape:window-width="1850"
     inkscape:window-height="1002"
     inkscape:window-x="70"
     inkscape:window-y="41"
     inkscape:window-maximized="1"
     inkscape:current-layer="layer1"
     showguides="false"
     showgrid="true"><inkscape:grid
       id="grid22"
       units="mm"
       originx="0"
       originy="0"
       spacingx="1"
       spacingy="1"
       empcolor="#0099e5"
       empopacity="0.30196078"
       color="#0099e5"
       opacity="0.14901961"
       empspacing="5"
       dotted="false"
       gridanglex="30"
       gridanglez="30"
       visible="true" /></sodipodi:namedview><defs
     id="defs1" /><g
     inkscape:label="Слой 1"
     inkscape:groupmode="layer"
     id="layer1"><path
       style="fill:#582222;fill-opacity:1;stroke:#000000;stroke-width:7.9375;stroke-linecap:round;stroke-linejoin:round;stroke-dasharray:none;stroke-opacity:1"
       d="m 27.453996,9.2385555 23.27953,30.2447385 c -2.504871,5.303426 -7.198871,10.405932 -6.552348,15.998594 l 10.178804,10.78418 15.578027,13.669697 13.9244,10.127245 c 5.947982,-0.328668 9.679304,-5.82098 13.879752,-9.654269 l 32.452909,21.693369 c -1.37386,11.87567 -8.55167,21.17826 -16.21062,24.76145 -10.22912,-0.23299 -19.891162,-5.40281 -29.454686,-9.95901 -8.069548,-5.21377 -14.926168,-9.4083 -21.894747,-15.02194 C 52.173737,92.922068 41.941695,83.368326 32.961819,73.366436 26.586719,66.951082 25.030112,64.822386 19.783589,57.410898 14.305884,50.096485 6.8738193,37.818191 5.5024563,30.103298 9.0966175,18.862147 17.272465,12.991633 27.453996,9.2385555 Z"
       id="path25"
       sodipodi:nodetypes="ccccccccccccccc" /></g></svg>
